<svg width="18" height="16" viewBox="0 0 18 16" fill="none" xmlns="http://www.w3.org/2000/svg">
<path d="M0.957405 5.85559C1.06325 5.52817 1.35366 5.29563 1.69723 5.26466L6.36418 4.8409L8.20962 0.52147C8.34569 0.204912 8.65559 0 8.99991 0C9.34422 0 9.65412 0.204912 9.79019 0.52221L11.6356 4.8409L16.3033 5.26466C16.6463 5.29637 16.9359 5.52817 17.0424 5.85559C17.1489 6.183 17.0506 6.54212 16.7911 6.7685L13.2634 9.86228L14.3037 14.4445C14.3798 14.7814 14.249 15.1297 13.9695 15.3317C13.8192 15.4403 13.6434 15.4956 13.4661 15.4956C13.3133 15.4956 13.1617 15.4544 13.0256 15.3729L8.99991 12.9669L4.97569 15.3729C4.68122 15.5501 4.31001 15.5339 4.03108 15.3317C3.75141 15.129 3.62076 14.7807 3.69688 14.4445L4.7371 9.86228L1.20944 6.76912C0.950003 6.54212 0.850939 6.18362 0.957405 5.85559Z" fill="#F2994A"/>
</svg>
